<?xml version="1.0" encoding="UTF-8"?>
<svg width="312px" height="108px" viewBox="0 0 312 108" version="1.1" xmlns="http://www.w3.org/2000/svg" xmlns:xlink="http://www.w3.org/1999/xlink">
    <!-- Generator: Sketch 48.2 (47327) - http://www.bohemiancoding.com/sketch -->
    <title>Page 1</title>
    <desc>Created with Sketch.</desc>
    <defs>
        <polygon id="path-1" points="0 0.317233163 233.680775 0.317233163 233.680775 9.84951378 0 9.84951378"></polygon>
    </defs>
    <g id="Logo-White-on-Black-Copy" stroke="none" stroke-width="1" fill="none" fill-rule="evenodd" transform="translate(0.000000, -5.000000)">
        <g id="Page-1" transform="translate(0.000000, 5.000000)">
            <polygon id="Fill-1" fill="#231F20" points="0 80 0 108 262 108 262 102.651461 218.338251 80 226.473428 80"></polygon>
            <path d="M262,102 L262,80 L262,102 Z" id="Fill-2" fill="#231F20"></path>
            <g id="Group-63">
                <path d="M138.487659,97.0167362 L139.348122,97.0167362 L139.348122,91.1704964 C139.348122,91.0946138 139.310354,91.0667719 139.225512,91.0667719 L138.601512,91.0667719 C138.516122,91.0667719 138.478354,91.0946138 138.487659,91.1704964 L138.487659,97.0167362 Z M138.487659,97.8186903 L138.487659,98.148425 L137.684122,98.148425 L137.684122,90.3876495 C137.674817,90.3030321 137.721891,90.2653638 137.816585,90.2653638 L139.972122,90.2653638 C140.09528,90.2653638 140.151659,90.3123128 140.151659,90.4264097 L140.151659,98.148425 L139.348122,98.148425 L139.348122,97.8186903 L138.487659,97.8186903 Z M133.789048,98.2237617 C135.027196,95.5176444 135.027196,92.9430934 135.027196,91.7644556 L134.280038,91.7644556 L134.280038,90.9630474 L135.027196,90.9630474 L135.027196,89.9449097 L135.830733,89.9449097 L135.830733,90.9537668 L137.07928,90.9537668 C137.28728,91.0099964 137.372122,91.0291036 137.372122,91.4156138 L137.334354,95.0268638 C137.296585,96.8000066 137.060122,97.8847464 136.615659,98.2521495 C136.511659,98.355874 136.332122,98.402823 136.067196,98.402823 C135.840585,98.402823 135.557048,98.3657005 135.225891,98.2996444 L135.131196,97.366124 C135.349048,97.4316342 135.698817,97.5260781 135.953891,97.5260781 C136.048585,97.5260781 136.114817,97.4976903 136.152585,97.4600219 C136.55928,97.0167362 136.55928,95.3948128 136.55928,93.1505423 C136.55928,92.2929046 136.549427,91.8594454 136.530817,91.8305117 C136.511659,91.7835628 136.473891,91.7644556 136.426817,91.7644556 L135.830733,91.7644556 C135.830733,92.5380219 135.764501,93.7925423 135.51928,95.2910883 C135.235196,96.7061087 134.923196,97.7526342 134.601891,98.3935423 L133.789048,98.2237617 Z M133.230733,91.3211699 C133.230733,91.2365526 133.183659,91.1890577 133.108122,91.1890577 L132.654354,91.1890577 C132.568964,91.1890577 132.521891,91.2365526 132.521891,91.3211699 L132.521891,96.6870015 L133.079659,96.6870015 C133.183659,96.6870015 133.230733,96.630226 133.230733,96.5357821 L133.230733,91.3211699 Z M132.521891,97.4507413 L132.521891,97.9502566 L131.756122,97.9502566 L131.756122,90.6709811 C131.756122,90.5104811 131.840964,90.4264097 132.001891,90.4264097 L133.75128,90.4264097 C133.920964,90.4264097 133.996501,90.5104811 133.996501,90.6802617 L133.996501,97.1870628 C133.996501,97.366124 133.911659,97.4507413 133.732122,97.4507413 L132.521891,97.4507413 Z" id="Fill-3" fill="#FFFFFF"></path>
                <path d="M147.832771,96.6963367 L147.832771,98.5448163 L147.029234,98.5448163 L147.029234,89.8789082 L147.832771,89.8789082 L147.832771,90.9254337 L149.572307,90.9254337 L149.572307,91.7268418 L147.832771,91.7268418 L147.832771,93.3957143 L149.534539,93.3957143 L149.534539,94.1976684 L147.832771,94.1976684 L147.832771,95.8943827 L149.723928,95.8943827 L149.723928,96.6963367 L147.832771,96.6963367 Z M142.840771,91.2464337 C142.840771,91.1607245 142.793149,91.1137755 142.708307,91.1137755 L142.150539,91.1137755 C142.065149,91.1137755 142.018076,91.1607245 142.018076,91.2464337 L142.018076,96.5833316 L142.679844,96.5833316 C142.783844,96.5833316 142.840771,96.5260102 142.840771,96.4228316 L142.840771,91.2464337 Z M142.018076,97.3465255 L142.018076,98.139199 L141.252307,98.139199 L141.252307,90.5951531 C141.252307,90.4346531 141.337149,90.3500357 141.488771,90.3500357 L143.360771,90.3500357 C143.521697,90.3500357 143.606539,90.4346531 143.606539,90.6049796 L143.606539,96.4413929 C144.286918,96.0739898 144.892307,95.7256939 145.393149,95.4134286 L145.440771,94.6027398 L145.440771,94.1976684 L144.060307,94.1976684 L144.060307,93.3957143 L145.440771,93.3957143 L145.440771,91.7268418 L144.022539,91.7268418 L144.022539,90.9254337 L145.440771,90.9254337 L145.440771,89.90675 L146.244307,89.90675 L146.244307,94.6027398 C146.244307,96.3 145.648771,97.724301 144.741234,98.553551 L144.088771,98.0447551 C144.485613,97.7428622 144.854539,97.2056786 145.166539,96.4605 L143.947002,97.1205153 L143.606539,96.6018929 L143.606539,97.0730204 C143.606539,97.2526276 143.511844,97.3465255 143.341613,97.3465255 L142.018076,97.3465255 Z" id="Fill-5" fill="#FFFFFF"></path>
                <path d="M161.605162,94.3106189 L163.770552,94.3106189 C162.815394,93.9808842 161.954931,93.6129352 161.198467,93.2073179 C160.726088,93.5659862 159.988236,93.9426699 158.986004,94.3106189 L160.829541,94.3106189 L160.829541,93.7450474 L161.605162,93.7450474 L161.605162,94.3106189 Z M158.759394,95.8473791 L158.759394,96.262277 L163.373162,96.262277 C163.571857,96.262277 163.571857,96.1962209 163.571857,95.8473791 L158.759394,95.8473791 Z M158.929625,94.9706342 C158.759394,94.9706342 158.759394,95.0175832 158.759394,95.3478638 L163.571857,95.3478638 C163.571857,95.0268638 163.571857,94.9706342 163.39232,94.9706342 L158.929625,94.9706342 Z M158.371857,92.0756291 L159.02432,92.5194607 C159.411857,92.330573 159.751773,92.0663485 160.092236,91.802124 L158.135394,91.802124 L158.050004,91.8780066 L158.371857,92.0756291 Z M157.993625,94.631073 L157.161625,94.8576291 L156.858931,94.1031699 C158.929625,93.7259403 160.347857,93.1505423 161.085162,92.3960832 L161.775394,92.6412005 L161.699857,92.7170832 L162.172236,92.9622005 L161.784699,92.4244709 C162.115857,92.3595066 162.418004,92.2737974 162.701541,92.170073 L161.888699,91.4538281 L162.390088,90.9253791 C162.749162,91.2835015 163.089625,91.5761138 163.39232,91.802124 C163.817625,91.4538281 164.12032,91.1142668 164.290004,90.8025474 L161.718467,90.8025474 L161.718467,90.1523587 L164.782088,90.1523587 L165.197541,90.4542515 C164.829162,91.5100577 164.384699,91.8594454 164.006467,92.1607923 C164.441625,92.3491342 164.970931,92.5096342 165.594931,92.6226393 L165.254467,93.3296036 C164.706552,93.2073179 164.054088,92.9622005 163.316236,92.5942515 C162.966467,92.7547515 162.597541,92.8961444 162.210004,92.9807617 C163.278467,93.4617158 164.422467,93.7925423 165.604236,93.9333893 L165.311394,94.6873026 L164.337625,94.4711189 L164.337625,96.6870015 C164.337625,96.8469556 164.262088,96.9222923 164.101162,96.9222923 L161.671394,96.9222923 C162.115857,97.158675 162.588236,97.3748587 163.079773,97.5353587 C163.779857,97.2334658 164.337625,96.9605066 164.734467,96.6870015 L165.074931,97.3000679 L164.280699,97.7711954 C164.668236,97.7903026 165.094088,97.8088638 165.557162,97.7995832 L165.330552,98.6009913 C163.070467,98.5070934 161.756236,97.827425 160.375773,96.9222923 L158.759394,96.9222923 L158.759394,97.780476 C158.958088,97.780476 159.865625,97.7056852 160.375773,97.5926801 L160.489625,98.3083791 C159.638467,98.5070934 158.513625,98.6009913 157.114004,98.6009913 L157.010004,97.8749199 L157.993625,97.8470781 L157.993625,94.631073 Z M156.811857,92.9998689 C157.454467,92.9343587 157.946004,92.8677566 158.286467,92.7831393 C158.078467,92.6412005 157.814088,92.4719658 157.482931,92.2929046 L157.180236,92.4812464 L156.802004,91.9719046 C157.520699,91.6328893 157.974467,91.2649403 158.135394,90.8969913 L158.418931,90.9155526 L158.418931,89.8788536 L159.146931,89.8788536 L159.146931,90.1523587 L161.028236,90.1523587 L161.028236,90.8025474 L159.146931,90.8025474 L159.146931,91.2174454 L160.527394,91.2174454 L161.037541,91.5384454 C160.319394,92.7547515 158.986004,93.480277 157.057625,93.6975526 L156.811857,92.9998689 Z" id="Fill-7" fill="#FFFFFF"></path>
                <path d="M172.661347,90.9156617 L172.661347,93.8013862 L173.805347,93.8013862 C173.862274,93.8013862 173.890737,93.7729985 173.890737,93.7069423 L173.890737,91.000825 C173.890737,90.9445954 173.862274,90.9156617 173.805347,90.9156617 L172.661347,90.9156617 Z M171.867116,93.8013862 L171.867116,90.9156617 L170.685347,90.9156617 C170.628968,90.9156617 170.599958,90.9445954 170.599958,91.0101056 L170.599958,93.8013862 L171.867116,93.8013862 Z M169.796968,90.3031413 C169.796968,90.1803097 169.862653,90.1142536 169.985811,90.1142536 L174.495579,90.1142536 C174.628042,90.1142536 174.694274,90.1803097 174.694274,90.3031413 L174.694274,94.3855189 C174.694274,94.5274577 174.628042,94.6027944 174.486274,94.6027944 L170.599958,94.6027944 L170.599958,96.9038403 C170.599958,97.1205699 170.599958,97.601524 171.101347,97.6299117 L173.455579,97.6299117 C174.004042,97.6299117 174.164968,97.2810699 174.202189,97.0075648 L174.202189,95.9604934 L175.034189,96.0549372 C175.034189,96.979177 174.911579,97.6200852 174.646653,97.9596464 C174.410737,98.2713658 174.108042,98.4313199 173.776884,98.4313199 L170.950274,98.4313199 C170.146189,98.4313199 169.796968,98.0448097 169.796968,97.3094577 L169.796968,90.3031413 Z M168.501347,91.415723 C168.501347,91.3311056 168.453726,91.2836107 168.359579,91.2836107 L167.518274,91.2836107 C167.432884,91.2836107 167.385811,91.3311056 167.385811,91.415723 L167.385811,96.6019474 L168.331116,96.6019474 C168.444421,96.6019474 168.501347,96.5457179 168.501347,96.4321668 L168.501347,91.415723 Z M167.385811,97.394075 L167.385811,97.9126974 L166.582274,97.9126974 L166.582274,90.7366005 C166.582274,90.5668199 166.667116,90.4822026 166.837347,90.4822026 L169.040505,90.4822026 C169.210189,90.4822026 169.304884,90.5668199 169.304884,90.7366005 L169.304884,97.1205699 C169.304884,97.3094577 169.210189,97.394075 169.030653,97.394075 L167.385811,97.394075 Z" id="Fill-9" fill="#FFFFFF"></path>
                <path d="M12.1483495,97.694876 C11.4882232,97.9672893 10.7968968,98.1037689 10.0732758,98.1037689 C8.90847579,98.1037689 8.01407579,97.7565648 7.38952842,97.0627026 C6.76552842,96.3682944 6.45298105,95.3419679 6.45298105,93.983723 C6.45298105,93.3253454 6.53946526,92.7297485 6.71188632,92.1974781 C6.88430737,91.6646617 7.13007579,91.2126413 7.44973895,90.8414168 C7.76940211,90.4707383 8.15584421,90.1841311 8.61016,89.9832332 C9.06392842,89.7817893 9.57298105,89.6807944 10.1362232,89.6807944 C10.5188337,89.6807944 10.8746232,89.7135495 11.2024968,89.7785138 C11.5303705,89.8434781 11.8456547,89.9433811 12.1483495,90.077677 L12.1483495,91.1777026 C11.8494863,91.0150189 11.5407705,90.8900036 11.2211074,90.8037485 C10.9014442,90.7180393 10.5527705,90.6749117 10.1745389,90.6749117 C9.78754947,90.6749117 9.43723368,90.746973 9.12413895,90.8916413 C8.81104421,91.0368556 8.54502316,91.2459423 8.32607579,91.5205393 C8.10767579,91.7956821 7.93963368,92.1314219 7.82194947,92.5272128 C7.70426526,92.9235495 7.64514947,93.3755699 7.64514947,93.883274 C7.64514947,94.9483607 7.86190737,95.7508607 8.29487579,96.2924117 C8.72784421,96.8328709 9.36279158,97.1036464 10.1997179,97.1036464 C10.5527705,97.1036464 10.8910442,97.0627026 11.2150863,96.9808148 C11.5385811,96.898927 11.8494863,96.7848301 12.1483495,96.6379781 L12.1483495,97.694876 Z" id="Fill-11" fill="#FFFFFF"></path>
                <path d="M17.5708547,95.2099648 L16.1772547,90.8131383 L14.7831074,95.2099648 L17.5708547,95.2099648 Z M19.6902653,98.0028832 L18.4663495,98.0028832 L17.8927074,96.2100872 L14.4618021,96.2100872 L13.8815916,98.0028832 L12.7146021,98.0028832 L15.4514442,89.7818985 L16.9906442,89.7818985 L19.6902653,98.0028832 Z" id="Fill-13" fill="#FFFFFF"></path>
                <polygon id="Fill-15" fill="#FFFFFF" points="25.3714021 90.7375832 21.8709811 90.7375832 21.8709811 93.4054862 25.1885811 93.4054862 25.1885811 94.3422821 21.8709811 94.3422821 21.8709811 98.0032107 20.7231495 98.0032107 20.7231495 89.7816801 25.3714021 89.7816801"></polygon>
                <polygon id="Fill-17" fill="#FFFFFF" points="32.1627116 98.0029923 27.4766905 98.0029923 27.4766905 89.7814617 32.1627116 89.7814617 32.1627116 90.7253546 28.5993432 90.7253546 28.5993432 93.2726097 32.02368 93.2726097 32.02368 94.2159566 28.5993432 94.2159566 28.5993432 97.0470893 32.1627116 97.0470893"></polygon>
                <path d="M43.9917811,91.2286367 C43.9917811,90.9141878 43.9036547,90.6679786 43.7268547,90.4894633 C43.5506021,90.310948 43.3108547,90.2225092 43.00816,90.2225092 C42.8401179,90.2225092 42.6917811,90.2492592 42.5636968,90.303851 C42.4350653,90.3589888 42.3266863,90.4337796 42.23856,90.5304071 C42.1498863,90.6264888 42.0842021,90.7394939 42.0398653,90.8699684 C41.9960758,90.9998969 41.9736337,91.1407439 41.9736337,91.2914173 C41.9736337,91.5179735 42.0157811,91.728698 42.0995284,91.9230449 C42.1838232,92.1184837 42.3184758,92.3330296 42.5034863,92.5683204 L42.6737179,92.7883255 C42.8543495,92.6878765 43.0245811,92.5863357 43.1844126,92.4837031 C43.3442442,92.3805245 43.4843705,92.2675194 43.6042442,92.1435959 C43.7235705,92.0196724 43.8182653,91.8837388 43.8877811,91.7347031 C43.9572968,91.5862133 43.9917811,91.4175245 43.9917811,91.2286367 Z M41.2669811,95.6565806 C41.2669811,95.8793153 41.3031074,96.0823969 41.3742653,96.2669173 C41.4459705,96.4514378 41.5477811,96.6097541 41.6802442,96.7418663 C41.8127074,96.8739786 41.9747284,96.9755194 42.1663074,97.0470347 C42.3573389,97.1180041 42.5724547,97.1540347 42.8122021,97.1540347 C43.3590232,97.1540347 43.8379705,96.9525908 44.2506863,96.5497031 L42.2451284,94.0466673 C42.1017179,94.1432949 41.9703495,94.2453816 41.8504758,94.3551112 C41.7311495,94.463749 41.6276968,94.583851 41.54176,94.7132337 C41.4552758,94.8431622 41.3879495,94.9861929 41.3397811,95.1412337 C41.2916126,95.2962745 41.2669811,95.4682388 41.2669811,95.6565806 Z M46.2244968,93.7131112 C46.2244968,94.262851 46.16976,94.7618204 46.0602863,95.2100194 C45.95136,95.6587643 45.79536,96.061652 45.5939284,96.4181367 L46.8676547,98.0029378 L45.4111074,98.0029378 L44.8560758,97.3172643 C44.5572126,97.5689327 44.2238653,97.7610959 43.8560337,97.8932082 C43.4882021,98.0247745 43.0902653,98.0913765 42.6611284,98.0913765 C42.2533389,98.0913765 41.8915284,98.034601 41.5762442,97.9215959 C41.26096,97.8080449 40.9960337,97.6497286 40.7814653,97.4466469 C40.5674442,97.2430194 40.4043284,97.0006316 40.2926653,96.7200296 C40.1815495,96.4388816 40.1257179,96.1288 40.1257179,95.7892388 C40.1257179,95.4704224 40.1678653,95.185999 40.2516126,94.9365143 C40.3359074,94.6870296 40.4492126,94.4648408 40.5926232,94.269948 C40.7354863,94.0750551 40.9007916,93.9025449 41.0874442,93.7540551 C41.2746442,93.6055653 41.4711495,93.4679939 41.67696,93.3418867 L41.5384758,93.1469939 C41.3031074,92.8576571 41.1274021,92.5639531 41.0119074,92.2658816 C40.8958653,91.9683561 40.8383916,91.6768357 40.8383916,91.3918663 C40.8383916,91.0899735 40.88656,90.8110092 40.9834442,90.5555194 C41.0803284,90.3000296 41.2220968,90.0789327 41.4087495,89.8916827 C41.5964968,89.7055245 41.8274863,89.5592184 42.1028126,89.454402 C42.3781389,89.3501316 42.6923284,89.2971776 43.0459284,89.2971776 C43.3863916,89.2971776 43.6847074,89.3457643 43.9414232,89.4423918 C44.1975916,89.5390194 44.41216,89.6705857 44.5845811,89.8381827 C44.7570021,90.0063255 44.8861811,90.2001265 44.9726653,90.4206776 C45.0586021,90.6401367 45.1018442,90.8743357 45.1018442,91.1216367 C45.1018442,91.4360857 45.0482021,91.7117745 44.9409179,91.9487031 C44.8341811,92.1856316 44.69296,92.3952643 44.5183495,92.5781469 C44.3442863,92.7604837 44.1439495,92.9231673 43.9195284,93.0651061 C43.69456,93.2075908 43.4641179,93.3462541 43.2287495,93.48055 L44.8560758,95.5059071 C45.0410863,95.0113051 45.1270232,94.4135245 45.1144337,93.7131112 L46.2244968,93.7131112 Z" id="Fill-19" fill="#FFFFFF"></path>
                <polygon id="Fill-21" fill="#FFFFFF" points="59.2774821 98.0029923 54.5914611 98.0029923 54.5914611 89.7814617 59.2774821 89.7814617 59.2774821 90.7253546 55.7141137 90.7253546 55.7141137 93.2726097 59.1389979 93.2726097 59.1389979 94.2159566 55.7141137 94.2159566 55.7141137 97.0470893 59.2774821 97.0470893"></polygon>
                <path d="M65.0216758,95.2099648 L63.6280758,90.8131383 L62.2339284,95.2099648 L65.0216758,95.2099648 Z M67.1410863,98.0028832 L65.9171705,98.0028832 L65.3435284,96.2100872 L61.9126232,96.2100872 L61.3324126,98.0028832 L60.1654232,98.0028832 L62.9022653,89.7818985 L64.4414653,89.7818985 L67.1410863,98.0028832 Z" id="Fill-23" fill="#FFFFFF"></path>
                <polygon id="Fill-25" fill="#FFFFFF" points="73.4403663 90.7375832 70.9996505 90.7375832 70.9996505 98.0032107 69.8644084 98.0032107 69.8644084 90.7375832 67.4231453 90.7375832 67.4231453 89.7816801 73.4403663 89.7816801"></polygon>
                <polygon id="Fill-27" fill="#FFFFFF" points="79.6135326 98.0029923 74.9275116 98.0029923 74.9275116 89.7814617 79.6135326 89.7814617 79.6135326 90.7253546 76.0501642 90.7253546 76.0501642 93.2726097 79.4745011 93.2726097 79.4745011 94.2159566 76.0501642 94.2159566 76.0501642 97.0470893 79.6135326 97.0470893"></polygon>
                <path d="M85.2694905,92.0405811 C85.2694905,91.5994791 85.1315537,91.2702903 84.8562274,91.051923 C84.5809011,90.8341015 84.1928168,90.7254638 83.6925221,90.7254638 L82.6328168,90.7254638 L82.6328168,93.4424995 L83.5414484,93.4424995 C83.8063747,93.4424995 84.0450274,93.412474 84.2568589,93.3513311 C84.4692379,93.2907342 84.6504168,93.2006577 84.7993011,93.0805556 C84.9487326,92.9615454 85.0642274,92.8146934 85.1463326,92.6410913 C85.2284379,92.4663974 85.2694905,92.2660454 85.2694905,92.0405811 Z M87.0670484,98.0031015 L85.7993432,98.0031015 L84.5694063,95.3734128 C84.4769011,95.1725148 84.3822063,95.0060097 84.2858695,94.8733515 C84.1884379,94.7412393 84.0844379,94.6369689 83.9733221,94.5589026 C83.8616589,94.4819281 83.7401432,94.4262444 83.60768,94.3923974 C83.4752168,94.3590964 83.32688,94.342173 83.1626695,94.342173 L82.6328168,94.342173 L82.6328168,98.0031015 L81.5107116,98.0031015 L81.5107116,89.7815709 L83.7182484,89.7815709 C84.1971958,89.7815709 84.6093642,89.834525 84.9542063,89.9387954 C85.2990484,90.0441577 85.5814905,90.1904638 85.8026274,90.3793515 C86.0232168,90.5682393 86.1846905,90.7958872 86.2881432,91.0617495 C86.3910484,91.3281577 86.4425011,91.6224077 86.4425011,91.9455913 C86.4425011,92.201627 86.4047326,92.4434689 86.3291958,92.6722087 C86.2531116,92.9004026 86.1409011,93.1083974 85.9914695,93.2951015 C85.8420379,93.4818056 85.6570274,93.6433974 85.4364379,93.7793311 C85.2158484,93.9158107 84.9624168,94.0173515 84.6766905,94.0839536 C84.90768,94.1642036 85.1041853,94.3034128 85.2662063,94.502673 C85.4282274,94.7019332 85.5929853,94.9667036 85.7610274,95.2986219 L87.0670484,98.0031015 Z" id="Fill-29" fill="#FFFFFF"></path>
                <polygon id="Fill-31" fill="#FFFFFF" points="94.3186947 89.7817347 91.3355368 95.0656786 91.3355368 98.0032653 90.2002947 98.0032653 90.2002947 95.0405663 87.2171368 89.7817347 88.5729684 89.7817347 90.2128842 92.7886531 90.8182737 93.9962245 91.3733053 92.9016582 93.0318316 89.7817347"></polygon>
                <polygon id="Fill-33" fill="#8ECAC6" points="30.4177011 87.2456709 29.0208168 88.5001913 28.5484379 88.2108546 29.6037642 86.8274974"></polygon>
                <polygon id="Fill-35" fill="#8ECAC6" points="32.3129095 85.7550408 30.3609937 87.9791122 29.5021726 87.3180051 31.1694568 84.8750204"></polygon>
                <g id="Group-39" transform="translate(0.000000, 79.158163)">
                    <mask id="mask-2" fill="white">
                        <use xlink:href="#path-1"></use>
                    </mask>
                    <g id="Clip-38"></g>
                    <path d="M223.775596,0.317233163 L-0.000109473684,0.317233163 L-0.000109473684,9.84951378 L233.680775,9.84951378 C229.926922,7.17287602 226.586333,3.95905459 223.775596,0.317233163" id="Fill-37" fill="#231F20" mask="url(#mask-2)"></path>
                </g>
                <path d="M233.68384,13.1148153 L0.0522189474,13.1148153 L0.0522189474,22.6481878 L223.775377,22.6481878 C226.587756,19.0047286 229.927251,15.7909071 233.68384,13.1148153" id="Fill-40" fill="#231F20"></path>
                <polygon id="Fill-42" fill="#231F20" points="29.4830695 63.6879832 23.2589432 63.6879832 23.2589432 51.5937077 19.6665642 57.8362842 15.6828168 57.8362842 12.0926274 51.5937077 12.0926274 63.6879832 5.86904842 63.6879832 5.86904842 38.4327077 11.9864379 38.4327077 17.6752379 49.5721719 23.3662274 38.4327077 29.4830695 38.4327077"></polygon>
                <path d="M53.3815032,54.8210679 C53.3815032,57.5168128 52.4493347,59.7043077 50.5888295,61.3819148 C48.7277768,63.0633434 46.4452505,63.9007821 43.7445347,63.9007821 C41.0399874,63.9007821 38.7870189,63.072624 36.9850821,61.4190372 C35.1130821,59.7163179 34.1770821,57.5168128 34.1770821,54.8210679 L34.1770821,38.4325985 L40.4012084,38.4325985 L40.4012084,54.6802209 C40.4012084,55.8381138 40.69624,56.7427005 41.2895874,57.3939811 C41.8812926,58.0419862 42.6979663,58.3673536 43.7445347,58.3673536 C44.7872716,58.3673536 45.61544,58.0419862 46.2334189,57.3939811 C46.8486611,56.7427005 47.1551874,55.8381138 47.1551874,54.6802209 L47.1551874,38.4325985 L53.3815032,38.4325985 L53.3815032,54.8210679 Z" id="Fill-44" fill="#231F20"></path>
                <polygon id="Fill-46" fill="#231F20" points="77.8465726 63.6879832 72.4057305 63.6879832 64.2992042 50.9904679 64.2992042 63.6879832 58.0739832 63.6879832 58.0739832 38.4327077 63.5164674 38.4327077 71.6240884 51.1318607 71.6240884 38.4327077 77.8465726 38.4327077"></polygon>
                <path d="M98.7585642,61.097 C96.8849221,62.9684082 94.5498484,63.9008367 91.7538905,63.9008367 C88.9535537,63.9008367 86.60808,62.9547602 84.7125432,61.063699 C83.5247537,59.880148 82.7661011,58.3559439 82.4365853,56.4867194 C82.2461011,55.4478367 82.1514063,53.640301 82.1514063,51.0602908 C82.1514063,48.4824643 82.2461011,46.6749286 82.4365853,45.6355 C82.7661011,43.7679133 83.5247537,42.2409796 84.7125432,41.0601582 C86.60808,39.1674592 88.9535537,38.2208367 91.7538905,38.2208367 C94.5498484,38.2208367 96.8849221,39.1538112 98.7585642,41.0235816 L94.6335958,45.1376224 C93.7096379,44.2161122 92.7484589,43.7542653 91.7538905,43.7542653 C90.6854274,43.7542653 89.8797011,44.1085663 89.3350695,44.8188061 C88.6946484,45.6447806 88.3755326,47.7280051 88.3755326,51.0602908 C88.3755326,54.395852 88.6946484,56.475801 89.3350695,57.3077806 C89.8797011,58.0136531 90.6854274,58.3674082 91.7538905,58.3674082 C92.7484589,58.3674082 93.7096379,57.907199 94.6335958,56.9829592 L98.7585642,61.097 Z" id="Fill-48" fill="#231F20"></path>
                <polygon id="Fill-50" fill="#231F20" points="121.484535 63.6879832 115.260408 63.6879832 115.260408 53.6851209 108.646008 53.6851209 108.646008 63.6879832 102.419693 63.6879832 102.419693 38.4327077 108.646008 38.4327077 108.646008 48.1516923 115.260408 48.1516923 115.260408 38.4327077 121.484535 38.4327077"></polygon>
                <polygon id="Fill-52" fill="#231F20" points="156.261916 38.4328714 149.327853 63.6881469 144.243347 63.6881469 140.154505 51.2395704 136.064568 63.6881469 131.014 63.6881469 124.042716 38.4328714 130.550926 38.4328714 133.857032 51.770749 137.948063 38.4328714 142.358211 38.4328714 146.447053 51.770749 149.755895 38.4328714"></polygon>
                <polygon id="Fill-54" fill="#231F20" points="158.824421 63.6879286 165.045263 63.6879286 165.045263 38.4326531 158.824421 38.4326531"></polygon>
                <path d="M185.958021,61.097 C184.082737,62.9684082 181.749853,63.9008367 178.951158,63.9008367 C176.153558,63.9008367 173.806989,62.9547602 171.910905,61.063699 C170.724758,59.880148 169.966105,58.3559439 169.633853,56.4867194 C169.443368,55.4478367 169.348674,53.640301 169.348674,51.0602908 C169.348674,48.4824643 169.443368,46.6749286 169.633853,45.6355 C169.966105,43.7679133 170.724758,42.2409796 171.910905,41.0601582 C173.806989,39.1674592 176.153558,38.2208367 178.951158,38.2208367 C181.749853,38.2208367 184.082737,39.1538112 185.958021,41.0235816 L181.830863,45.1376224 C180.906905,44.2161122 179.948463,43.7542653 178.951158,43.7542653 C177.884337,43.7542653 177.077516,44.1085663 176.533432,44.8188061 C175.893558,45.6447806 175.5728,47.7280051 175.5728,51.0602908 C175.5728,54.395852 175.893558,56.475801 176.533432,57.3077806 C177.077516,58.0136531 177.884337,58.3674082 178.951158,58.3674082 C179.948463,58.3674082 180.906905,57.907199 181.830863,56.9829592 L185.958021,61.097 Z" id="Fill-56" fill="#231F20"></path>
                <polygon id="Fill-57" fill="#231F20" points="208.681802 63.6879832 202.458223 63.6879832 202.458223 53.6851209 195.843823 53.6851209 195.843823 63.6879832 189.621339 63.6879832 189.621339 38.4327077 195.843823 38.4327077 195.843823 48.1516923 202.458223 48.1516923 202.458223 38.4327077 208.681802 38.4327077"></polygon>
                <path d="M260.830413,89.9246015 C282.350202,89.9246015 299.795928,72.5250913 299.795928,51.060673 C299.795928,29.5968005 282.350202,12.1978362 260.830413,12.1978362 C239.310076,12.1978362 221.863802,29.5968005 221.863802,51.060673 C221.863802,72.5250913 239.310076,89.9246015 260.830413,89.9246015 Z" id="Stroke-58" stroke="#231F20" stroke-width="10"></path>
                <path d="M282.407074,67.5915179 L286.817221,67.5915179 C288.973853,64.2259311 290.490611,60.4197883 291.198905,56.3297679 L282.149263,66.8201352 C281.892,67.2514107 281.977389,67.5074464 282.407074,67.5915179 Z M246.560463,31.8737168 L246.560463,30.1906505 L251.625263,30.1906505 L251.625263,31.8737168 L257.598695,31.8737168 L257.598695,30.5782526 L255.912253,30.5782526 L255.912253,29.4110791 L242.535116,29.4110791 L242.535116,30.5782526 L237.854568,30.5782526 C237.478526,30.9980638 237.115074,31.4326148 236.760379,31.8737168 L246.560463,31.8737168 Z M270.687368,65.0229719 L270.687368,46.5239821 L267.466105,46.5239821 L267.466105,66.3102474 L269.397768,66.3102474 C270.256042,66.3102474 270.687368,65.8800638 270.687368,65.0229719 Z M275.324126,66.9517015 C275.324126,69.0065383 274.205305,70.0328648 271.975326,70.0328648 L262.958526,70.0328648 L262.958526,46.3820434 L262.014863,46.3820434 L262.014863,53.1170383 L257.080884,53.1170383 L257.080884,46.3820434 L245.390737,46.3820434 L245.390737,50.397273 C245.477221,52.6404515 244.306947,53.7213699 241.885937,53.6362066 L235.910863,53.6362066 L235.910863,50.2662526 L239.676211,50.2662526 C240.197305,50.2662526 240.410779,50.0074872 240.325937,49.4921403 L240.325937,46.3820434 L234.612505,46.3820434 L234.612505,42.6233954 L240.325937,42.6233954 L240.325937,41.5888801 L245.390737,41.5888801 L245.390737,42.6233954 L257.080884,42.6233954 L257.080884,41.5888801 L262.014863,41.5888801 L262.014863,42.6233954 L262.958526,42.6233954 L262.958526,42.5425995 L275.324126,42.5425995 L275.324126,66.9517015 Z M252.254189,54.0374566 L261.983663,54.0374566 L261.983663,62.0526301 C262.046063,63.7700893 261.286863,64.6271811 259.6984,64.6271811 L255.727789,64.6271811 L255.727789,69.3772168 C255.727789,69.6441709 255.860253,69.7730077 256.125726,69.7730077 L261.983663,69.7730077 L261.983663,72.5451811 L254.735958,72.5451811 C253.015579,72.6117832 252.186863,71.7879923 252.254189,70.0705332 L252.254189,61.6557474 L258.406611,61.6557474 C258.539621,61.6557474 258.605853,61.5258189 258.605853,61.2605026 L258.605853,57.0050689 L252.254189,57.0050689 L252.254189,54.0374566 Z M275.967284,48.8370383 L275.967284,45.2383444 L276.869895,45.2383444 C277.642779,45.2383444 278.112968,44.9839464 278.285389,44.4680536 L279.575537,41.8989617 L284.340379,41.8989617 L283.567495,43.4439107 L290.704084,43.4439107 C287.303832,30.1480689 275.220126,20.3215383 260.834737,20.3215383 C254.317221,20.3215383 248.274821,22.3419821 243.295958,25.7845434 L255.912253,25.7845434 L255.912253,24.6206454 L261.107326,24.6206454 L261.107326,25.7845434 L263.833221,25.7845434 L263.833221,29.4110791 L260.976505,29.4110791 L260.976505,30.5782526 L262.664589,30.5782526 L262.664589,31.8737168 L263.833221,31.8737168 L263.833221,35.6318189 L252.274989,35.6318189 L255.1328,36.7962628 C256.169516,37.1429209 257.211158,37.3137934 258.248421,37.3137934 L263.833221,37.3137934 L263.833221,40.940875 L256.169516,40.940875 C255.304126,41.0282219 254.178189,40.7700026 252.792253,40.1656709 L249.157726,38.3515842 L245.001011,40.2950536 C243.615074,40.8999311 241.838863,41.2001862 239.676211,41.2001862 L234.481684,41.2001862 L234.481684,37.4453597 L237.859495,37.4453597 C239.590274,37.5316148 241.146442,37.2717577 242.535116,36.6657883 L245.131832,35.6318189 L234.481684,35.6318189 L234.481684,35.1082832 C231.646316,39.7611454 230.011326,45.2186913 230.011326,51.0605638 C230.011326,59.8836964 233.742189,67.831176 239.710695,73.4372117 L239.849726,73.4372117 C240.179242,73.4372117 240.347284,73.3078291 240.347284,73.0403291 L240.347284,66.5095077 L243.322779,66.5095077 L243.322779,70.8659362 C243.322779,71.3266913 243.587158,71.8191097 244.118105,72.3491964 L244.217726,72.4474617 L244.217726,64.9236148 L239.452337,64.9236148 L239.452337,62.0526301 L244.217726,62.0526301 L244.217726,58.7874923 L239.849726,58.7874923 L239.849726,55.9192372 L244.217726,55.9192372 L244.217726,53.6400281 L247.788758,53.6400281 L247.788758,55.9192372 L251.363074,55.9192372 L251.363074,58.7874923 L247.788758,58.7874923 L247.788758,62.0526301 L251.759916,62.0526301 L251.759916,64.9236148 L247.690232,64.9236148 L247.690232,67.4976199 L251.363074,67.4976199 L251.363074,70.2670638 L247.690232,70.2670638 L247.690232,73.6348342 L261.983663,73.6348342 L261.983663,76.2055638 L246.101768,76.2055638 C245.240758,76.2055638 244.415874,75.8108648 243.621095,75.0198291 C243.486989,74.8888087 243.389558,74.8216607 243.322779,74.8216607 C243.254905,74.8216607 243.124084,74.9221097 242.926484,75.1180944 C242.712463,75.3151709 242.503368,75.4773087 242.298653,75.621977 C247.4576,79.501273 253.876589,81.8045026 260.834737,81.8045026 C270.014105,81.8045026 278.253095,77.7974617 283.899747,71.4473393 L277.771411,71.4473393 C276.654232,71.6160281 276.139705,71.1454464 276.225642,70.0328648 L276.225642,66.9517015 L286.401768,55.0037321 L276.482905,55.0037321 L276.482905,50.6369311 L291.650484,50.6369311 C291.634063,49.5516454 291.561811,48.4789158 291.436463,47.4242015 L281.892,47.4242015 L281.5072,47.9373648 C281.074779,48.5389668 280.302989,48.8370383 279.186358,48.8370383 L275.967284,48.8370383 Z" id="Fill-59" fill="#231F20"></path>
                <path d="M226.849179,79.4748505 C234.965011,89.1272332 247.144505,95.2557128 260.799158,95.2715444 C285.397347,95.2382434 304.8864,75.512575 305.148589,51.5533097 C305.416253,27.0912536 285.654611,6.87644235 260.840758,6.84641684 C236.401853,6.81529949 216.537305,26.5775444 216.501179,50.9533454 C216.485305,61.8264015 220.373263,71.7724883 226.849179,79.4748505 M260.777263,101.761968 C232.556589,101.677351 209.968884,79.0544934 209.9864,50.8932944 C210.003368,23.0197944 232.787579,0.367457653 260.805179,0.362544388 C288.912547,0.359268878 311.679242,23.076024 311.675411,51.1209423 C311.672126,78.5003862 289.662442,100.942544 262.434695,101.739585 C261.884042,101.755963 261.331747,101.76306 260.777263,101.761968 Z" id="Fill-60" fill="#FFFFFF"></path>
                <path d="M112.999229,94.2082592 C112.999229,94.9479786 112.398219,95.5473969 111.657082,95.5473969 C110.915398,95.5473969 110.314387,94.9479786 110.314387,94.2082592 C110.314387,93.4685398 110.915398,92.8691214 111.657082,92.8691214 C112.398219,92.8691214 112.999229,93.4685398 112.999229,94.2082592" id="Fill-61" fill="#FFFFFF"></path>
                <polygon id="Fill-62" fill="#FFFFFF" points="28.4986821 86.4981995 27.9370821 88.2566026 27.28024 88.0911893 27.6245347 86.2787403"></polygon>
            </g>
        </g>
    </g>
</svg>