<?xml version="1.0" encoding="UTF-8"?>
<svg width="316px" height="110px" viewBox="0 0 316 110" version="1.1" xmlns="http://www.w3.org/2000/svg" xmlns:xlink="http://www.w3.org/1999/xlink">
    <!-- Generator: Sketch 48.2 (47327) - http://www.bohemiancoding.com/sketch -->
    <title>Page 1 Copy</title>
    <desc>Created with Sketch.</desc>
    <defs>
        <polygon id="path-1" points="0 0.323453421 236.676682 0.323453421 236.676682 10.0426415 0 10.0426415"></polygon>
    </defs>
    <g id="Logo-White-on-Black" stroke="none" stroke-width="1" fill="none" fill-rule="evenodd" transform="translate(0.000000, -6.000000)">
        <g id="Page-1-Copy" transform="translate(0.000000, 6.000000)">
            <polygon id="Fill-1" fill="#FFFFFF" points="0 82 0 110 266 110 266 104.651461 221.67166 82 229.931037 82"></polygon>
            <path d="M266,104 L266,82 L266,104 Z" id="Fill-2" fill="#231F20"></path>
            <g id="Group-63">
                <path d="M140.263142,98.9190252 L141.134636,98.9190252 L141.134636,92.9581532 C141.134636,92.8807827 141.096384,92.8523949 141.010454,92.8523949 L140.378454,92.8523949 C140.29197,92.8523949 140.253717,92.8807827 140.263142,92.9581532 L140.263142,98.9190252 Z M140.263142,99.7367038 L140.263142,100.072904 L139.449303,100.072904 L139.449303,92.1599563 C139.439879,92.0736798 139.487556,92.0352729 139.583465,92.0352729 L141.766636,92.0352729 C141.891373,92.0352729 141.948475,92.0831424 141.948475,92.1994766 L141.948475,100.072904 L141.134636,100.072904 L141.134636,99.7367038 L140.263142,99.7367038 Z M135.504293,100.149718 C136.758314,97.3905394 136.758314,94.765507 136.758314,93.5637587 L136.001577,93.5637587 L136.001577,92.7466366 L136.758314,92.7466366 L136.758314,91.7085354 L137.572152,91.7085354 L137.572152,92.737174 L138.836707,92.737174 C139.047373,92.7945062 139.133303,92.813988 139.133303,93.2080768 L139.095051,96.8901356 C139.056798,98.698046 138.817303,99.8040552 138.367142,100.178662 C138.261808,100.284421 138.07997,100.33229 137.811647,100.33229 C137.582131,100.33229 137.294959,100.29444 136.959556,100.227088 L136.863647,99.2752637 C137.084293,99.3420584 137.438545,99.4383541 137.696889,99.4383541 C137.792798,99.4383541 137.859879,99.4094097 137.898131,99.3710028 C138.31004,98.9190252 138.31004,97.2652993 138.31004,94.9770236 C138.31004,94.1025694 138.300061,93.660611 138.281212,93.63111 C138.261808,93.5832405 138.223556,93.5637587 138.175879,93.5637587 L137.572152,93.5637587 C137.572152,94.352493 137.505072,95.6316118 137.256707,97.159541 C136.96898,98.6023069 136.65298,99.6693525 136.327556,100.322827 L135.504293,100.149718 Z M134.938819,93.1117811 C134.938819,93.0255046 134.891142,92.9770784 134.814636,92.9770784 L134.355051,92.9770784 C134.268566,92.9770784 134.220889,93.0255046 134.220889,93.1117811 L134.220889,98.5828251 L134.785808,98.5828251 C134.891142,98.5828251 134.938819,98.5249363 134.938819,98.4286406 L134.938819,93.1117811 Z M134.220889,99.3615402 L134.220889,99.8708499 L133.445303,99.8708499 L133.445303,92.4488435 C133.445303,92.2851964 133.531233,92.1994766 133.694222,92.1994766 L135.46604,92.1994766 C135.6379,92.1994766 135.714405,92.2851964 135.714405,92.4583061 L135.714405,99.0926914 C135.714405,99.2752637 135.628475,99.3615402 135.446636,99.3615402 L134.220889,99.3615402 Z" id="Fill-3" fill="#231F20"></path>
                <path d="M149.728062,98.5923433 L149.728062,100.477068 L148.914224,100.477068 L148.914224,91.6412397 L149.728062,91.6412397 L149.728062,92.7082853 L151.489901,92.7082853 L151.489901,93.5254074 L149.728062,93.5254074 L149.728062,95.2270028 L151.451648,95.2270028 L151.451648,96.0446815 L149.728062,96.0446815 L149.728062,97.7746647 L151.643466,97.7746647 L151.643466,98.5923433 L149.728062,98.5923433 Z M144.672062,93.0355794 C144.672062,92.9481897 144.623831,92.9003201 144.537901,92.9003201 L143.972982,92.9003201 C143.886498,92.9003201 143.83882,92.9481897 143.83882,93.0355794 L143.83882,98.4771224 L144.509073,98.4771224 C144.614406,98.4771224 144.672062,98.4186771 144.672062,98.3134754 L144.672062,93.0355794 Z M143.83882,99.2552809 L143.83882,100.063497 L143.063234,100.063497 L143.063234,92.3715286 C143.063234,92.2078816 143.149164,92.121605 143.302729,92.121605 L145.198729,92.121605 C145.361719,92.121605 145.447648,92.2078816 145.447648,92.3815478 L145.447648,98.3324006 C146.13675,97.9577935 146.749901,97.6026683 147.257164,97.2842801 L147.305396,96.4576955 L147.305396,96.0446815 L145.907234,96.0446815 L145.907234,95.2270028 L147.305396,95.2270028 L147.305396,93.5254074 L145.868982,93.5254074 L145.868982,92.7082853 L147.305396,92.7082853 L147.305396,91.6696275 L148.119234,91.6696275 L148.119234,96.4576955 C148.119234,98.1882353 147.516062,99.6404638 146.596891,100.485974 L145.936062,99.9672013 C146.337992,99.659389 146.711648,99.1116723 147.027648,98.3518824 L145.792476,99.0248391 L145.447648,98.4960476 L145.447648,98.976413 C145.447648,99.1595418 145.35174,99.2552809 145.179326,99.2552809 L143.83882,99.2552809 Z" id="Fill-5" fill="#231F20"></path>
                <path d="M163.677023,96.1598467 L165.870174,96.1598467 C164.902771,95.8236466 164.031276,95.448483 163.265114,95.0349123 C162.786679,95.4006134 162.039367,95.784683 161.024286,96.1598467 L162.891458,96.1598467 L162.891458,95.5831856 L163.677023,95.5831856 L163.677023,96.1598467 Z M160.794771,97.7267395 L160.794771,98.1497727 L165.46769,98.1497727 C165.668932,98.1497727 165.668932,98.0824213 165.668932,97.7267395 L160.794771,97.7267395 Z M160.967185,96.8328035 C160.794771,96.8328035 160.794771,96.880673 160.794771,97.2174297 L165.668932,97.2174297 C165.668932,96.8901356 165.668932,96.8328035 165.487093,96.8328035 L160.967185,96.8328035 Z M160.402265,93.8810336 L161.063093,94.3335678 C161.455599,94.1409764 161.799872,93.871571 162.1447,93.6021656 L160.162771,93.6021656 L160.076286,93.6795362 L160.402265,93.8810336 Z M160.019185,96.4865842 L159.176518,96.7175826 L158.869942,95.9483301 C160.967185,95.5637038 162.403599,94.9770236 163.150356,94.2077711 L163.849437,94.4576946 L163.772932,94.5350652 L164.251367,94.7849888 L163.858862,94.2367154 C164.194265,94.1704774 164.500286,94.0830876 164.787458,93.9773293 L163.964195,93.2470404 L164.472013,92.7082297 C164.83569,93.0733741 165.180518,93.3717238 165.487093,93.6021656 C165.917851,93.2470404 166.224427,92.9008211 166.396286,92.5829896 L163.791781,92.5829896 L163.791781,91.920052 L166.894679,91.920052 L167.315458,92.2278643 C166.942356,93.3043725 166.492195,93.660611 166.109114,93.9678667 C166.549851,94.1599015 167.085942,94.3235486 167.717942,94.4387695 L167.373114,95.1595958 C166.818174,95.0349123 166.157346,94.7849888 165.410034,94.4098251 C165.055781,94.5734721 164.682125,94.7176374 164.28962,94.8039139 C165.371781,95.2942985 166.530448,95.6316118 167.727367,95.7752204 L167.430771,96.5439163 L166.444518,96.3234938 L166.444518,98.5828251 C166.444518,98.7459155 166.368013,98.8227295 166.205023,98.8227295 L163.744104,98.8227295 C164.194265,99.0637471 164.6727,99.2841696 165.170539,99.4478167 C165.879599,99.1400044 166.444518,98.861693 166.846448,98.5828251 L167.191276,99.2079123 L166.386862,99.6882777 C166.779367,99.7077595 167.210679,99.7266846 167.67969,99.717222 L167.450174,100.534344 C165.161114,100.438605 163.830034,99.7456098 162.431872,98.8227295 L160.794771,98.8227295 L160.794771,99.6977403 C160.996013,99.6977403 161.915185,99.621483 162.431872,99.5062621 L162.547185,100.235994 C161.685114,100.438605 160.545851,100.534344 159.128286,100.534344 L159.022953,99.794036 L160.019185,99.7656482 L160.019185,96.4865842 Z M158.822265,94.8233957 C159.473114,94.756601 159.970953,94.688693 160.315781,94.6024165 C160.105114,94.4576946 159.837346,94.2851416 159.501942,94.1025694 L159.195367,94.2946042 L158.812286,93.7752753 C159.540195,93.4296126 159.999781,93.0544489 160.162771,92.6792853 L160.449942,92.6982104 L160.449942,91.641184 L161.187276,91.641184 L161.187276,91.920052 L163.0927,91.920052 L163.0927,92.5829896 L161.187276,92.5829896 L161.187276,93.0060228 L162.585437,93.0060228 L163.102125,93.3333169 C162.374771,94.5734721 161.024286,95.3132236 159.071185,95.5347595 L158.822265,94.8233957 Z" id="Fill-7" fill="#231F20"></path>
                <path d="M174.874954,92.6983218 L174.874954,95.6406291 L176.033621,95.6406291 C176.091277,95.6406291 176.120105,95.6116847 176.120105,95.5443334 L176.120105,92.7851549 C176.120105,92.7278228 176.091277,92.6983218 176.033621,92.6983218 L174.874954,92.6983218 Z M174.07054,95.6406291 L174.07054,92.6983218 L172.873621,92.6983218 C172.816519,92.6983218 172.787137,92.7278228 172.787137,92.7946175 L172.787137,95.6406291 L174.07054,95.6406291 Z M171.973853,92.0737912 C171.973853,91.9485511 172.040379,91.8811997 172.165116,91.8811997 L176.732702,91.8811997 C176.866863,91.8811997 176.933944,91.9485511 176.933944,92.0737912 L176.933944,96.2362153 C176.933944,96.3809372 176.866863,96.4577511 176.723277,96.4577511 L172.787137,96.4577511 L172.787137,98.8039156 C172.787137,99.0248948 172.787137,99.5152794 173.294954,99.5442237 L175.679368,99.5442237 C176.234863,99.5442237 176.397853,99.1885419 176.435551,98.9096739 L176.435551,97.8420717 L177.278218,97.9383674 C177.278218,98.8807295 177.154035,99.5342045 176.885712,99.8804238 C176.646772,100.198255 176.340196,100.361346 176.004793,100.361346 L173.141944,100.361346 C172.327551,100.361346 171.973853,99.9672569 171.973853,99.2174862 L171.973853,92.0737912 Z M170.661621,93.2081881 C170.661621,93.1219116 170.613389,93.0734854 170.518035,93.0734854 L169.665944,93.0734854 C169.57946,93.0734854 169.531782,93.1219116 169.531782,93.2081881 L169.531782,98.4961033 L170.489207,98.4961033 C170.603965,98.4961033 170.661621,98.4387711 170.661621,98.3229936 L170.661621,93.2081881 Z M169.531782,99.3037627 L169.531782,99.8325543 L168.717944,99.8325543 L168.717944,92.5157495 C168.717944,92.3426399 168.803874,92.2563634 168.976288,92.2563634 L171.207691,92.2563634 C171.379551,92.2563634 171.47546,92.3426399 171.47546,92.5157495 L171.47546,99.0248948 C171.47546,99.2174862 171.379551,99.3037627 171.197712,99.3037627 L169.531782,99.3037627 Z" id="Fill-9" fill="#231F20"></path>
                <path d="M12.3040975,99.6104618 C11.6355081,99.8882165 10.9353186,100.027372 10.2024204,100.027372 C9.02268702,100.027372 8.11682035,99.6733602 7.48426596,98.9658928 C6.85226596,98.2578688 6.53571158,97.2114182 6.53571158,95.8265411 C6.53571158,95.1552541 6.62330456,94.5479788 6.79793614,94.0052717 C6.97256772,93.462008 7.22148702,93.0011245 7.54524842,92.6226211 C7.86900982,92.2446743 8.26040632,91.9524474 8.72054667,91.7476103 C9.18013263,91.5422165 9.69571158,91.4392413 10.2661747,91.4392413 C10.6536905,91.4392413 11.0140414,91.4726387 11.3461186,91.5388768 C11.6781958,91.6051149 11.9975221,91.7069768 12.3040975,91.843906 L12.3040975,92.9655006 C12.0014028,92.7996271 11.6887291,92.6721605 11.3649677,92.5842141 C11.0412063,92.4968244 10.6880625,92.4528512 10.3049818,92.4528512 C9.91303088,92.4528512 9.55822386,92.5263254 9.24111509,92.6738304 C8.92400632,92.821892 8.65457474,93.0350785 8.43282035,93.3150597 C8.21162035,93.5955975 8.04142386,93.9379204 7.92223088,94.3414718 C7.80303789,94.7455799 7.74316421,95.2064634 7.74316421,95.7241225 C7.74316421,96.8100933 7.96270105,97.6283286 8.40122035,98.1804982 C8.83973965,98.7315547 9.48282737,99.0076395 10.3304835,99.0076395 C10.6880625,99.0076395 11.030673,98.9658928 11.3588695,98.8823994 C11.6865116,98.798906 12.0014028,98.6825719 12.3040975,98.5328404 L12.3040975,99.6104618 Z" id="Fill-11" fill="#231F20"></path>
                <path d="M17.7961221,97.0768269 L16.3846554,92.593788 L14.9726344,97.0768269 L17.7961221,97.0768269 Z M19.9427046,99.9245083 L18.7030975,99.9245083 L18.1221011,98.0965595 L14.6472098,98.0965595 L14.0595607,99.9245083 L12.8776098,99.9245083 L15.6495396,91.5423279 L17.208473,91.5423279 L19.9427046,99.9245083 Z" id="Fill-13" fill="#231F20"></path>
                <polygon id="Fill-15" fill="#231F20" points="25.6966765 92.5167515 22.1513782 92.5167515 22.1513782 95.2369663 25.5115116 95.2369663 25.5115116 96.1921308 22.1513782 96.1921308 22.1513782 99.9248423 20.9888309 99.9248423 20.9888309 91.5421052 25.6966765 91.5421052"></polygon>
                <polygon id="Fill-17" fill="#231F20" points="32.575054 99.9246196 27.8289558 99.9246196 27.8289558 91.5418826 32.575054 91.5418826 32.575054 92.5042831 28.9660014 92.5042831 28.9660014 95.1014844 32.43424 95.1014844 32.43424 96.0633283 28.9660014 96.0633283 28.9660014 98.9499734 32.575054 98.9499734"></polygon>
                <path d="M44.5557782,93.0174335 C44.5557782,92.6968189 44.4665221,92.4457821 44.2874554,92.2637665 C44.1089432,92.0817509 43.8661221,91.991578 43.5595467,91.991578 C43.3893502,91.991578 43.2391116,92.0188525 43.1093853,92.0745148 C42.9791046,92.1307337 42.8693361,92.206991 42.78008,92.3055132 C42.6902695,92.4034788 42.6237432,92.5186996 42.5788379,92.6517325 C42.534487,92.7842086 42.5117572,92.9278173 42.5117572,93.0814451 C42.5117572,93.3124435 42.5544449,93.5272999 42.639266,93.7254575 C42.7246414,93.9247285 42.8610204,94.1434812 43.0484028,94.3833855 L43.2208168,94.6077044 C43.4037642,94.5052859 43.5761782,94.4017541 43.7380589,94.297109 C43.8999396,94.1919073 44.0418625,94.0766864 44.163273,93.9503331 C44.2841291,93.8239798 44.3800379,93.6853807 44.4504449,93.5334227 C44.5208519,93.3820214 44.5557782,93.210025 44.5557782,93.0174335 Z M41.7960449,97.5321998 C41.7960449,97.7593019 41.8326344,97.9663655 41.9047046,98.154504 C41.9773291,98.3426424 42.0804449,98.504063 42.2146063,98.6387657 C42.3487677,98.7734683 42.512866,98.8770002 42.7069011,98.9499177 C42.9003818,99.0222787 43.1182554,99.0590158 43.3610765,99.0590158 C43.9149081,99.0590158 44.3999958,98.853622 44.8180028,98.4428345 L42.7867326,95.8907196 C42.6414835,95.9892419 42.5084309,96.0933303 42.3870204,96.2052114 C42.2661642,96.3159794 42.1613853,96.4384363 42.0743467,96.5703559 C41.9867537,96.7028321 41.9185642,96.8486672 41.8697782,97.0067481 C41.8209923,97.1648289 41.7960449,97.340165 41.7960449,97.5321998 Z M46.8171186,95.5506232 C46.8171186,96.1111422 46.76168,96.6198953 46.6508028,97.0768825 C46.54048,97.5344263 46.38248,97.9452138 46.178466,98.3086884 L47.4685221,99.924564 L45.9933011,99.924564 L45.4311537,99.2254459 C45.1284589,99.482049 44.7908379,99.6779802 44.4182905,99.8126828 C44.0457432,99.9468289 43.6427046,100.014737 43.208066,100.014737 C42.7950484,100.014737 42.4285993,99.9568481 42.109273,99.8416272 C41.7899467,99.7258497 41.5216239,99.5644291 41.3043046,99.3573655 C41.0875396,99.1497453 40.9223326,98.9026048 40.8092379,98.6165008 C40.6966975,98.3298401 40.6401502,98.0136784 40.6401502,97.6674591 C40.6401502,97.3423915 40.6828379,97.0523911 40.7676589,96.7980146 C40.8530344,96.543638 40.9677923,96.3170926 41.1130414,96.1183783 C41.2577361,95.919664 41.4251607,95.7437713 41.6142063,95.5923699 C41.8038063,95.4409685 42.0028309,95.3006996 42.21128,95.1721198 L42.0710204,94.9734055 C41.8326344,94.6783955 41.6546765,94.3789325 41.5377011,94.0750166 C41.4201712,93.7716572 41.3619607,93.4744207 41.3619607,93.1838637 C41.3619607,92.8760514 41.4107467,92.5916172 41.508873,92.3311178 C41.6069993,92.0706184 41.7505853,91.8451862 41.9396309,91.6542647 C42.1297853,91.4644563 42.3637361,91.3152815 42.6425923,91.2084099 C42.9214484,91.102095 43.239666,91.0481026 43.5977993,91.0481026 C43.9426274,91.0481026 44.2447677,91.097642 44.5047747,91.1961642 C44.7642274,91.2946864 44.9815467,91.4288325 45.1561782,91.5997156 C45.3308098,91.7711554 45.4616449,91.9687565 45.5492379,92.193632 C45.6362765,92.4173943 45.680073,92.6561854 45.680073,92.9083355 C45.680073,93.2289501 45.6257432,93.5100446 45.5170835,93.7516188 C45.4089782,93.993193 45.2659467,94.2069361 45.0890975,94.3934047 C44.9128028,94.5793167 44.7098975,94.7451902 44.4825993,94.8899121 C44.2547467,95.0351906 44.0213502,95.1765728 43.7829642,95.313502 L45.4311537,97.378572 C45.6185361,96.8742719 45.7055747,96.2647701 45.6928239,95.5506232 L46.8171186,95.5506232 Z" id="Fill-19" fill="#231F20"></path>
                <polygon id="Fill-21" fill="#231F20" points="60.0374498 99.9246196 55.2913516 99.9246196 55.2913516 91.5418826 60.0374498 91.5418826 60.0374498 92.5042831 56.4283972 92.5042831 56.4283972 95.1014844 59.8971902 95.1014844 59.8971902 96.0633283 56.4283972 96.0633283 56.4283972 98.9499734 60.0374498 98.9499734"></polygon>
                <path d="M65.855287,97.0768269 L64.4438204,92.593788 L63.0317993,97.0768269 L65.855287,97.0768269 Z M68.0018695,99.9245083 L66.7622625,99.9245083 L66.181266,98.0965595 L62.7063747,98.0965595 L62.1187256,99.9245083 L60.9367747,99.9245083 L63.7087046,91.5423279 L65.2676379,91.5423279 L68.0018695,99.9245083 Z" id="Fill-23" fill="#231F20"></path>
                <polygon id="Fill-25" fill="#231F20" points="74.3819095 92.5167515 71.9099025 92.5167515 71.9099025 99.9248423 70.760106 99.9248423 70.760106 92.5167515 68.2875446 92.5167515 68.2875446 91.5421052 74.3819095 91.5421052"></polygon>
                <polygon id="Fill-27" fill="#231F20" points="80.6342189 99.9246196 75.8881207 99.9246196 75.8881207 91.5418826 80.6342189 91.5418826 80.6342189 92.5042831 77.0251663 92.5042831 77.0251663 95.1014844 80.4934049 95.1014844 80.4934049 96.0633283 77.0251663 96.0633283 77.0251663 98.9499734 80.6342189 98.9499734"></polygon>
                <path d="M86.3626891,93.8452984 C86.3626891,93.3955473 86.2229839,93.0599038 85.9441277,92.8372548 C85.6652716,92.6151623 85.2722119,92.5043944 84.7655032,92.5043944 L83.6922119,92.5043944 L83.6922119,95.2747054 L84.6124926,95.2747054 C84.8808154,95.2747054 85.1225277,95.2440911 85.3370751,95.1817494 C85.5521768,95.1199643 85.7356786,95.0281215 85.8864716,94.9056645 C86.0378189,94.7843208 86.1547944,94.6345893 86.2379523,94.4575833 C86.3211102,94.2794641 86.3626891,94.0751836 86.3626891,93.8452984 Z M88.1832926,99.924731 L86.8993347,99.924731 L85.6536295,97.2434797 C85.5599382,97.0386425 85.4640295,96.8688726 85.3664575,96.7336133 C85.2677768,96.5989106 85.1624435,96.4925957 85.0499032,96.4129987 C84.9368084,96.3345149 84.8137347,96.2777394 84.6795733,96.2432288 C84.5454119,96.2092748 84.3951733,96.1920195 84.2288575,96.1920195 L83.6922119,96.1920195 L83.6922119,99.924731 L82.5557207,99.924731 L82.5557207,91.5419939 L84.7915593,91.5419939 C85.276647,91.5419939 85.6940996,91.5959863 86.0433628,91.7023012 C86.392626,91.8097294 86.6786891,91.9589042 86.9026611,92.1514957 C87.1260786,92.3440871 87.2896225,92.5761988 87.3944014,92.847274 C87.498626,93.1189058 87.5507382,93.4189255 87.5507382,93.7484461 C87.5507382,94.0095021 87.5124856,94.2560859 87.4359804,94.4893108 C87.3589207,94.7219791 87.2452716,94.9340523 87.0939242,95.1244172 C86.9425768,95.3147822 86.7551944,95.4795425 86.5317768,95.6181415 C86.3083593,95.7572972 86.0516786,95.860829 85.7622891,95.928737 C85.99624,96.0105605 86.1952646,96.1524993 86.3593628,96.3556665 C86.5234611,96.5588338 86.6903312,96.8287958 86.8605277,97.1672224 L88.1832926,99.924731 Z" id="Fill-29" fill="#231F20"></path>
                <polygon id="Fill-31" fill="#231F20" points="95.5279088 91.5421609 92.5065053 96.9297115 92.5065053 99.924898 91.3567088 99.924898 91.3567088 96.9041068 88.3353053 91.5421609 89.7085193 91.5421609 91.3694596 94.6080384 91.9826105 95.8392877 92.5447579 94.7232593 94.2245474 91.5421609"></polygon>
                <polygon id="Fill-33" fill="#231F20" points="30.8076716 88.9563703 29.3928786 90.2354892 28.9144435 89.9404792 29.9832996 88.5299974"></polygon>
                <polygon id="Fill-35" fill="#231F20" points="32.7271775 87.4365122 30.7502372 89.7041929 29.8804056 89.0301228 31.5690653 86.5392365"></polygon>
                <g id="Group-39" transform="translate(0.000000, 80.710284)">
                    <mask id="mask-2" fill="white">
                        <use xlink:href="#path-1"></use>
                    </mask>
                    <g id="Clip-38"></g>
                    <path d="M226.644514,0.323453421 L-0.000110877193,0.323453421 L-0.000110877193,10.0426415 L236.676682,10.0426415 C232.874703,7.31352065 229.491286,4.03668311 226.644514,0.323453421" id="Fill-37" fill="#FFFFFF" mask="url(#mask-2)"></path>
                </g>
                <path d="M236.679787,13.3719685 L0.0528884211,13.3719685 L0.0528884211,23.0922699 L226.644292,23.0922699 C229.492727,19.3773703 232.875036,16.1005328 236.679787,13.3719685" id="Fill-40" fill="#FFFFFF"></path>
                <polygon id="Fill-42" fill="#FFFFFF" points="29.8610575 64.9367671 23.5571347 64.9367671 23.5571347 52.605349 19.9186996 58.970329 15.8838786 58.970329 12.2476611 52.605349 12.2476611 64.9367671 5.94429263 64.9367671 5.94429263 39.1862902 12.1401102 39.1862902 17.9018435 50.5441753 23.6657944 39.1862902 29.8610575 39.1862902"></polygon>
                <path d="M54.0658814,55.8959908 C54.0658814,58.6445934 53.1217621,60.8749804 51.2374042,62.5854818 C49.3524919,64.2998795 47.0407025,65.1537387 44.3053621,65.1537387 C41.5661411,65.1537387 39.2842884,64.3093421 37.4592498,62.6233321 C35.5632498,60.8872261 34.6152498,58.6445934 34.6152498,55.8959908 L34.6152498,39.1861788 L40.9191726,39.1861788 L40.9191726,55.7523821 C40.9191726,56.9329788 41.2179867,57.8553025 41.8189411,58.5193533 C42.4182323,59.1800644 43.2453761,59.5118115 44.3053621,59.5118115 C45.3614674,59.5118115 46.2002533,59.1800644 46.8261551,58.5193533 C47.4492849,57.8553025 47.7597411,56.9329788 47.7597411,55.7523821 L47.7597411,39.1861788 L54.0658814,39.1861788 L54.0658814,55.8959908 Z" id="Fill-44" fill="#FFFFFF"></path>
                <polygon id="Fill-46" fill="#FFFFFF" points="78.8446056 64.9367671 73.3340091 64.9367671 65.123553 51.990281 65.123553 64.9367671 58.8185214 64.9367671 58.8185214 39.1862902 64.3307811 39.1862902 72.542346 52.1344462 72.542346 39.1862902 78.8446056 39.1862902"></polygon>
                <path d="M100.0247,62.2949804 C98.1270365,64.2030828 95.762026,65.1537943 92.9302225,65.1537943 C90.0939839,65.1537943 87.71844,64.1891673 85.7986014,62.2610264 C84.5955839,61.0542685 83.8272049,59.5001781 83.4934646,57.5943021 C83.3005382,56.5350492 83.2046295,54.6920716 83.2046295,52.061473 C83.2046295,49.4331008 83.3005382,47.5901232 83.4934646,46.5303137 C83.8272049,44.6261076 84.5955839,43.0692341 85.7986014,41.8652593 C87.71844,39.9354486 90.0939839,38.9702649 92.9302225,38.9702649 C95.762026,38.9702649 98.1270365,39.921533 100.0247,41.8279656 L95.846847,46.0226739 C94.9110435,45.0830948 93.9375418,44.6121921 92.9302225,44.6121921 C91.8480611,44.6121921 91.0320049,44.9734402 90.4803909,45.6976062 C89.8317593,46.5397763 89.5085523,48.6638483 89.5085523,52.061473 C89.5085523,55.4624374 89.8317593,57.5831697 90.4803909,58.4314626 C91.0320049,59.1511757 91.8480611,59.5118671 92.9302225,59.5118671 C93.9375418,59.5118671 94.9110435,59.0426343 95.846847,58.1002721 L100.0247,62.2949804 Z" id="Fill-48" fill="#FFFFFF"></path>
                <polygon id="Fill-50" fill="#FFFFFF" points="123.042029 64.9367671 116.738106 64.9367671 116.738106 54.7377703 110.038906 54.7377703 110.038906 64.9367671 103.732766 64.9367671 103.732766 39.1862902 110.038906 39.1862902 110.038906 49.0958432 116.738106 49.0958432 116.738106 39.1862902 123.042029 39.1862902"></polygon>
                <polygon id="Fill-52" fill="#FFFFFF" points="158.265274 39.1864571 151.242312 64.9369341 146.092621 64.9369341 141.951358 52.2442679 137.808986 64.9369341 132.693667 64.9369341 125.633007 39.1864571 132.224656 39.1864571 135.573147 52.7858617 139.716628 39.1864571 144.183316 39.1864571 148.324579 52.7858617 151.675842 39.1864571"></polygon>
                <polygon id="Fill-54" fill="#FFFFFF" points="160.860632 64.9367115 167.161228 64.9367115 167.161228 39.1862345 160.860632 39.1862345"></polygon>
                <path d="M188.342098,62.2949804 C186.442772,64.2030828 184.079979,65.1537943 181.245404,65.1537943 C178.411937,65.1537943 176.035284,64.1891673 174.114891,62.2610264 C172.913537,61.0542685 172.145158,59.5001781 171.808646,57.5943021 C171.615719,56.5350492 171.519811,54.6920716 171.519811,52.061473 C171.519811,49.4331008 171.615719,47.5901232 171.808646,46.5303137 C172.145158,44.6261076 172.913537,43.0692341 174.114891,41.8652593 C176.035284,39.9354486 178.411937,38.9702649 181.245404,38.9702649 C184.079979,38.9702649 186.442772,39.921533 188.342098,41.8279656 L184.162028,46.0226739 C183.226225,45.0830948 182.255495,44.6121921 181.245404,44.6121921 C180.164905,44.6121921 179.34774,44.9734402 178.796681,45.6976062 C178.148604,46.5397763 177.823733,48.6638483 177.823733,52.061473 C177.823733,55.4624374 178.148604,57.5831697 178.796681,58.4314626 C179.34774,59.1511757 180.164905,59.5118671 181.245404,59.5118671 C182.255495,59.5118671 183.226225,59.0426343 184.162028,58.1002721 L188.342098,62.2949804 Z" id="Fill-56" fill="#FFFFFF"></path>
                <polygon id="Fill-57" fill="#FFFFFF" points="211.35721 64.9367671 205.053841 64.9367671 205.053841 54.7377703 198.354641 54.7377703 198.354641 64.9367671 192.052382 64.9367671 192.052382 39.1862902 198.354641 39.1862902 198.354641 49.0958432 205.053841 49.0958432 205.053841 39.1862902 211.35721 39.1862902"></polygon>
                <path d="M264.174392,91.687829 C285.970076,91.687829 303.639466,73.9471519 303.639466,52.0618626 C303.639466,30.1771299 285.970076,12.4370095 264.174392,12.4370095 C242.378154,12.4370095 224.70821,30.1771299 224.70821,52.0618626 C224.70821,73.9471519 242.378154,91.687829 264.174392,91.687829 Z" id="Stroke-58" stroke="#231F20" stroke-width="10"></path>
                <path d="M286.027677,68.9168417 L290.494365,68.9168417 C292.678646,65.4852631 294.214849,61.60449 294.932225,57.4342731 L285.766561,68.1303339 C285.506,68.5700658 285.592484,68.8311218 286.027677,68.9168417 Z M249.721495,32.4986917 L249.721495,30.782624 L254.851228,30.782624 L254.851228,32.4986917 L260.901242,32.4986917 L260.901242,31.1778261 L259.193179,31.1778261 L259.193179,29.9877669 L245.64454,29.9877669 L245.64454,31.1778261 L240.903986,31.1778261 C240.523123,31.6058689 240.155011,32.0489406 239.795768,32.4986917 L249.721495,32.4986917 Z M274.157719,66.2979322 L274.157719,47.4362171 L270.895158,47.4362171 L270.895158,67.6104484 L272.851586,67.6104484 C273.720863,67.6104484 274.157719,67.1718297 274.157719,66.2979322 Z M278.853923,68.26448 C278.853923,70.3596076 277.720758,71.4060582 275.462189,71.4060582 L266.329789,71.4060582 L266.329789,47.2914952 L265.374028,47.2914952 L265.374028,54.1585488 L260.376793,54.1585488 L260.376793,47.2914952 L248.536772,47.2914952 L248.536772,51.3854548 C248.624365,53.6726172 247.439088,54.7747301 244.987039,54.687897 L238.935361,54.687897 L238.935361,51.2518653 L242.748982,51.2518653 C243.276758,51.2518653 243.492968,50.9880262 243.407039,50.4625744 L243.407039,47.2914952 L237.620358,47.2914952 L237.620358,43.4591483 L243.407039,43.4591483 L243.407039,42.4043483 L248.536772,42.4043483 L248.536772,43.4591483 L260.376793,43.4591483 L260.376793,42.4043483 L265.374028,42.4043483 L265.374028,43.4591483 L266.329789,43.4591483 L266.329789,43.3767681 L278.853923,43.3767681 L278.853923,68.26448 Z M255.488218,55.0970146 L265.342428,55.0970146 L265.342428,63.2693483 C265.405628,65.0204832 264.636695,65.8943808 263.027867,65.8943808 L259.006351,65.8943808 L259.006351,70.7375544 C259.006351,71.0097429 259.140512,71.1411058 259.409389,71.1411058 L265.342428,71.1411058 L265.342428,73.9676357 L258.001804,73.9676357 C256.259368,74.0355436 255.420028,73.1956 255.488218,71.4444652 L255.488218,62.8646837 L261.719516,62.8646837 C261.854232,62.8646837 261.921312,62.7322075 261.921312,62.4616889 L261.921312,58.1228153 L255.488218,58.1228153 L255.488218,55.0970146 Z M279.505326,49.7946273 L279.505326,46.1253707 L280.419509,46.1253707 C281.202302,46.1253707 281.678519,45.8659846 281.853151,45.3399762 L283.159839,42.72051 L287.985768,42.72051 L287.202975,44.2957521 L294.43106,44.2957521 C290.987214,30.7392075 278.748589,20.7199998 264.178772,20.7199998 C257.577698,20.7199998 251.457832,22.7800602 246.415137,26.2901226 L259.193179,26.2901226 L259.193179,25.1034032 L264.454856,25.1034032 L264.454856,26.2901226 L267.215698,26.2901226 L267.215698,29.9877669 L264.322358,29.9877669 L264.322358,31.1778261 L266.032084,31.1778261 L266.032084,32.4986917 L267.215698,32.4986917 L267.215698,36.330482 L255.509284,36.330482 L258.403733,37.5177581 C259.45374,37.8712135 260.508737,38.0454364 261.559298,38.0454364 L267.215698,38.0454364 L267.215698,41.7436373 L259.45374,41.7436373 C258.577256,41.8326969 257.436884,41.5694144 256.033179,40.9532331 L252.352056,39.103576 L248.142049,41.0851527 C246.738344,41.7018906 244.939361,42.008033 242.748982,42.008033 L237.48786,42.008033 L237.48786,38.1795824 L240.908975,38.1795824 C242.661944,38.2675288 244.238063,38.0025764 245.64454,37.3847253 L248.274547,36.330482 L237.48786,36.330482 L237.48786,35.7966809 C234.61614,40.5407757 232.960189,46.1053323 232.960189,52.0617513 C232.960189,61.0578866 236.738884,69.1611991 242.783909,74.8771571 L242.924723,74.8771571 C243.258463,74.8771571 243.42866,74.7452375 243.42866,74.4724924 L243.42866,67.8136156 L246.442302,67.8136156 L246.442302,72.2554644 C246.442302,72.7252539 246.71007,73.2273275 247.247825,73.7678081 L247.348723,73.8680002 L247.348723,66.1966269 L242.522239,66.1966269 L242.522239,63.2693483 L247.348723,63.2693483 L247.348723,59.9401883 L242.924723,59.9401883 L242.924723,57.0156929 L247.348723,57.0156929 L247.348723,54.6917933 L250.965537,54.6917933 L250.965537,57.0156929 L254.585677,57.0156929 L254.585677,59.9401883 L250.965537,59.9401883 L250.965537,63.2693483 L254.987607,63.2693483 L254.987607,66.1966269 L250.865747,66.1966269 L250.865747,68.8211026 L254.585677,68.8211026 L254.585677,71.6448493 L250.865747,71.6448493 L250.865747,75.0786545 L265.342428,75.0786545 L265.342428,77.6997905 L249.256919,77.6997905 C248.38487,77.6997905 247.549411,77.2973523 246.744442,76.4908061 C246.608618,76.3572167 246.509937,76.2887521 246.442302,76.2887521 C246.373558,76.2887521 246.24106,76.3911707 246.040926,76.5909982 C245.824161,76.791939 245.612386,76.9572559 245.405046,77.1047609 C250.630133,81.0601214 257.131418,83.4085124 264.178772,83.4085124 C273.475825,83.4085124 281.820442,79.3229022 287.539488,72.8482675 L281.332582,72.8482675 C280.201081,73.0202639 279.679958,72.5404552 279.766996,71.4060582 L279.766996,68.26448 L290.073586,56.0822367 L280.027558,56.0822367 L280.027558,51.6298121 L295.389593,51.6298121 C295.372961,50.5232463 295.299782,49.4294828 295.172828,48.3540878 L285.506,48.3540878 L285.116267,48.8773131 C284.678302,49.4907113 283.896618,49.7946273 282.76567,49.7946273 L279.505326,49.7946273 Z" id="Fill-59" fill="#FFFFFF"></path>
                <path d="M229.757502,81.0331809 C237.977382,90.874826 250.313025,97.1234718 264.142737,97.1396139 C289.056288,97.1056599 308.7952,76.9932137 309.060751,52.5641589 C309.331846,27.6224546 289.316849,7.01127455 264.18487,6.9806603 C239.432646,6.94893281 219.313425,27.0986727 219.276835,51.9524306 C219.260758,63.0386839 223.198561,73.179792 229.757502,81.0331809 M264.120561,103.757301 C235.538084,103.671024 212.660793,80.6045815 212.678533,51.8912021 C212.695719,23.4711629 235.772035,0.374662705 264.148835,0.369653101 C292.616554,0.366313365 315.67513,23.528495 315.671249,52.1233138 C315.667923,80.0396095 293.376063,102.92181 265.799242,103.734479 C265.24153,103.751178 264.682154,103.758414 264.120561,103.757301 Z" id="Fill-60" fill="#FFFFFF"></path>
                <path d="M114.447938,96.05548 C114.447938,96.8097036 113.839222,97.4208753 113.088583,97.4208753 C112.33739,97.4208753 111.728674,96.8097036 111.728674,96.05548 C111.728674,95.3012563 112.33739,94.6900846 113.088583,94.6900846 C113.839222,94.6900846 114.447938,95.3012563 114.447938,96.05548" id="Fill-61" fill="#FFFFFF"></path>
                <polygon id="Fill-62" fill="#FFFFFF" points="29.1943431 88.1942426 28.4733055 89.9871242 27.6299867 89.8184675 28.0720263 87.9704803"></polygon>
            </g>
        </g>
    </g>
</svg>