<?xml version="1.0" encoding="UTF-8"?>
<svg width="274px" height="274px" viewBox="0 0 274 274" version="1.1" xmlns="http://www.w3.org/2000/svg" xmlns:xlink="http://www.w3.org/1999/xlink">
    <!-- Generator: Sketch 48.2 (47327) - http://www.bohemiancoding.com/sketch -->
    <title>Page 1</title>
    <desc>Created with Sketch.</desc>
    <defs>
        <polygon id="path-1" points="0 0.857712766 273.556526 0.857712766 273.556526 274 0 274"></polygon>
    </defs>
    <g id="Munchwich::Assets" stroke="none" stroke-width="1" fill="none" fill-rule="evenodd">
        <g id="Page-1">
            <path d="M208,186.896808 C209.595364,184.415912 210.593989,182.235216 212.171086,180.490658 C220.677666,171.099503 229.348654,161.832959 237.958751,152.526766 C238.062267,152.407819 238.269299,152.36817 239,152 C237.885681,156.072522 237.264585,159.907149 235.791004,163.407592 C233.038696,169.938353 229.421725,176.174578 226.894716,182.778974 C225.329798,186.879816 222.614025,187.174352 218.869181,186.942121 C215.514044,186.726884 212.14064,186.896808 208,186.896808" id="Fill-1" fill="#000000"></path>
            <g id="Group-5">
                <mask id="mask-2" fill="white">
                    <use xlink:href="#path-1"></use>
                </mask>
                <g id="Clip-4"></g>
                <path d="M255.805986,137.106011 C255.200652,126.85687 254.494429,117.545403 251.936594,108.275479 C246.844664,89.7712394 239.004991,72.9643093 225.77072,58.8279719 C218.791571,51.3918549 211.711533,44.2227971 202.951989,38.7451147 C190.673198,31.0716117 178.14515,24.4129339 163.664603,21.5880403 C149.373965,18.8046892 135.267301,17.2854187 120.721473,19.4931087 C104.454596,21.9737926 89.101655,26.4841269 75.1730304,35.481057 C64.9713663,42.068519 55.2444742,49.0714065 47.3810623,58.5134354 C37.8678176,69.9317029 29.4465486,81.848481 24.805652,96.2162698 C20.4970957,109.515821 17.0075213,122.767896 17.4822933,136.975449 C17.9926733,152.381802 19.4169894,167.491422 26.0994058,181.621824 C28.9658419,187.663299 31.648304,193.817531 35.1082052,199.491057 C43.8618146,213.870715 54.5323161,226.422501 69.1730988,235.443169 C81.2857204,242.914894 93.3983419,249.840631 107.588091,252.831695 C121.570128,255.769347 135.409733,257.745586 149.71224,255.686262 C166.103745,253.324271 182.008608,249.692265 196.044056,240.398603 C202.192354,236.345236 208.346587,232.226589 214.002309,227.526346 C227.117886,216.600654 237.628152,203.585966 244.458935,187.758253 C249.503388,176.078861 254.013722,164.304514 254.702141,151.414454 C254.98107,146.370001 255.479581,141.337417 255.805986,137.106011 M273.556526,135.634218 C272.903714,142.554021 272.13221,149.467888 271.604026,156.39956 C270.494246,170.583375 265.206473,183.443762 259.645705,196.316019 C255.455842,206.001369 249.319413,214.339552 243.064292,222.683671 C229.384922,240.920852 211.331716,253.152166 190.874976,262.665411 C176.29354,269.424978 161.0949,272.054028 145.344337,273.573299 C130.994353,274.962007 117.184421,272.760252 103.249862,269.881946 C89.831617,267.09266 77.9267082,261.080859 66.1761003,254.481528 C53.1614119,247.205647 42.8054468,236.938701 32.7580836,226.072356 C19.5297477,211.799522 11.85031,194.790814 5.76135866,176.672326 C1.0255076,162.571597 0.0759635258,148.180069 -0.00118693009,133.503679 C-0.078337386,119.717486 3.32221733,106.750274 7.22128267,93.7118473 C11.5061003,79.3796664 19.3754468,67.1542865 27.7373693,55.0119916 C37.9509027,40.1872348 51.5827948,29.386171 66.6983495,20.217136 C71.0662523,17.5584126 75.7130836,15.3922652 80.2768298,13.0421436 C94.8285927,5.54074544 110.57322,2.95917249 126.667992,1.33901292 C140.917088,-0.103107143 154.691412,1.87313146 168.56069,4.63867857 C182.335014,7.38048708 194.596002,13.4635038 206.673015,20.2052667 C220.803418,28.0983518 232.346313,38.911285 242.358068,51.457136 C246.179983,56.2701375 249.604277,61.4036102 253.081982,66.483671 C262.518076,80.2164521 266.921587,95.8305175 270.595135,111.842204 C272.411138,119.72342 273.052081,127.586832 273.556526,135.634218" id="Fill-3" fill="#000000" mask="url(#mask-2)"></path>
            </g>
            <path d="M107.629106,168.62338 C107.629106,177.863153 107.546935,186.397601 107.68193,194.932048 C107.723015,196.918717 108.268865,198.981796 108.967319,200.862666 C109.882938,203.337186 112.336329,204.583262 114.954062,204.483341 C120.001708,204.283498 125.055224,204.118922 130.114608,204.013123 C133.10798,203.942591 136.095482,204.001368 139.188633,204.001368 L139.188633,194.97907 L136.289171,194.97907 C131.382389,194.97907 126.475608,195.05548 121.557087,194.92617 C120.706031,194.885026 119.156521,194.003369 119.138913,193.462618 C118.945224,188.584112 119.021526,183.69385 119.021526,178.086507 C123.529191,178.086507 127.702303,178.151161 131.875415,178.074751 C137.110881,177.980708 139.552533,175.300468 139.417538,170.086932 C139.188633,162.005069 139.03016,153.91145 138.818863,145.823709 C138.795386,145.094872 138.672129,144.348402 138.631044,143.848796 L107.259336,143.848796 L107.259336,153.78214 L127.696434,153.78214 C127.942947,158.75469 128.177721,163.415721 128.447711,168.62338 L107.629106,168.62338 Z M122.144023,106.45475 C121.609912,106.513527 121.275358,106.589938 120.940805,106.607571 C109.935762,106.778025 98.9483281,106.901457 87.9432856,107.189465 C85.5251109,107.242364 83.911038,106.860313 84.1692897,104.08603 L68.4100688,104.08603 C68.3044204,105.214551 68.2163801,106.11972 68.0637768,107.45984 L49.8511652,107.45984 L49.8511652,119.985258 C53.0030093,119.814804 55.9787728,119.597329 58.9604057,119.532674 C62.0183402,119.456264 65.0880133,119.515041 68.2985511,119.515041 C68.2985511,122.618476 68.2985511,125.369249 68.3044204,128.120021 C68.3044204,132.087481 68.2398575,132.163891 64.2839116,132.169769 C60.8796851,132.181524 57.4754586,132.181524 53.7014627,132.181524 C53.8892821,136.154862 54.0653628,139.66386 54.2238354,143.008282 C55.0103291,143.184614 55.1688017,143.255146 55.3448824,143.255146 C60.944248,143.272779 66.5318749,143.284535 72.1371099,143.284535 C82.2558796,143.290413 84.850135,140.698339 84.850135,130.641562 L84.850135,119.321076 L122.801391,119.321076 L122.801391,122.071848 C122.801391,127.673314 122.848346,133.286535 122.766175,138.893879 C122.742697,140.569029 123.288547,141.233211 124.99653,141.103901 C128.224676,140.87467 131.47043,140.680705 134.727922,140.586662 C139.499709,140.457352 138.983205,141.297866 139.03016,136.342949 C139.047768,134.097661 139.03016,131.864128 139.03016,129.612961 L139.03016,118.656894 L141.272254,118.656894 C141.501159,120.431965 141.906145,122.030704 141.923753,123.641199 C142.135049,140.792382 142.317,157.93181 142.457864,175.08887 C142.510688,180.943078 142.463733,186.814919 142.463733,192.68676 L142.463733,195.643252 C143.49674,195.707907 144.253887,195.807828 145.005165,195.784317 C154.284616,195.613863 163.558199,195.496309 172.831781,195.18479 C179.8574,194.932048 182.797948,191.816857 182.768601,184.769473 C182.750993,179.702879 182.381224,174.630408 182.304922,169.557937 C182.222751,164.303256 182.328399,159.042698 182.275575,153.78214 C182.117102,138.441295 181.946891,123.12396 181.753202,107.777237 C181.753202,107.224731 181.600599,106.654593 181.541906,106.272541 L138.672129,106.272541 C138.543004,105.361494 138.408008,104.456326 138.278883,103.527646 L122.425752,103.527646 C122.325973,104.538614 122.243802,105.385005 122.144023,106.45475 Z M92.9439769,187.99634 L92.9439769,179.702879 L105.868299,179.702879 L105.868299,170.316163 L93.307877,170.316163 L93.307877,159.571693 L104.940941,159.571693 C104.682689,156.338948 104.447915,153.405966 104.189663,150.14971 L92.632901,150.14971 L92.632901,142.820195 C88.6534777,143.043548 84.9381753,143.237513 80.8589729,143.454989 C81.0174455,145.800198 81.1759181,148.057242 81.3402601,150.572906 L67.4416251,150.572906 L67.4416251,160.065421 C71.3095307,160.065421 75.1539589,160.17122 78.9925177,160.024277 C80.9528826,159.953745 81.569165,160.600294 81.4693859,162.528185 C81.3167827,165.161403 81.4341698,167.829888 81.4341698,170.704092 L66.0740651,170.704092 L66.0740651,179.885088 L81.3050439,179.885088 C81.5574263,187.602533 81.8098086,195.437532 82.0856683,203.86618 C79.8494437,202.155764 79.1392516,200.480614 79.1509903,198.394024 C79.162729,194.126801 79.162729,189.865455 79.162729,185.433655 L69.3491658,185.433655 C69.3491658,192.09311 69.3961206,198.605622 69.319819,205.112257 C69.3022109,205.982159 68.7211447,206.869695 68.3924608,207.745475 C67.5531429,207.322279 66.5318749,207.069537 65.8921151,206.446499 C59.4945171,200.316038 54.3764386,193.233387 49.5987829,185.792196 C40.1843359,171.109655 36.1520883,154.975317 35.1425591,137.724213 C34.3267186,123.823409 37.0677078,110.716096 41.951012,97.9026696 C43.7176882,93.2945382 45.7367466,88.7804503 47.4975534,84.5661261 L82.7782523,84.5661261 C76.838464,86.8290477 71.8553808,89.5915755 66.0858039,89.9912603 C60.4394834,90.3791898 54.8049016,90.7377306 48.6244698,91.1374155 C48.8475053,94.8697668 49.0705408,98.7373056 49.3111844,103.057429 C51.6354494,103.057429 53.9303676,103.127961 56.195939,103.045673 C59.9640656,102.910486 63.714584,102.581334 67.4885799,102.516679 C74.2148619,102.399124 80.6535454,101.170681 86.6226805,97.9438136 C87.7554662,97.3207754 89.0995487,97.0210118 90.0856005,96.2510306 C94.7634772,92.6009674 99.3826604,93.9058209 103.814024,96.4508731 C110.446396,100.242002 117.460277,101.793719 125.096309,101.341135 C129.991352,101.035494 134.921611,101.317624 139.828393,101.270602 C141.254646,101.247091 142.669161,100.970839 144.206932,100.800385 L144.206932,89.4681434 C132.069104,88.8803715 119.414772,91.272603 107.922573,83.8490444 L144.330189,83.8490444 C144.107153,79.6758642 143.884118,75.7142819 143.672821,71.6292675 C142.569382,71.5293462 141.559853,71.4470582 140.274464,71.3236261 C140.186423,70.1186938 140.086644,68.8784952 139.963388,67.3502883 L134.710314,67.3502883 L134.710314,63.6590811 L143.625866,63.6590811 L143.625866,51.692046 L135.127038,51.692046 C135.050737,50.3578039 134.980305,49.2704259 134.898134,48.0125942 L118.141122,48.0125942 C118.053082,49.0764612 117.953303,50.1579615 117.841785,51.4922036 C104.553563,52.8382011 91.1890394,51.7567009 77.0791076,52.256307 C78.2471095,51.3864046 78.7401354,50.9632089 79.2801161,50.6164235 C90.2264651,43.504384 102.170605,39.013807 114.895368,36.0455591 C129.157903,32.7246481 143.121101,33.8590478 157.272119,36.5216543 C167.073943,38.3790134 175.801675,42.4463947 184.406151,47.1015478 C205.236496,58.3926452 219.182086,75.5967275 227.868732,97.391308 C229.189338,100.688708 230.609722,103.962597 232.223795,107.853647 L209.033969,107.853647 C209.609166,106.501772 210.237187,105.061731 210.970857,103.333682 C206.034728,103.333682 201.397937,103.274904 196.755276,103.386581 C196.115517,103.410092 195.282068,104.138929 194.918168,104.756089 C193.879292,106.537038 192.834547,108.359131 192.130224,110.281145 C191.032654,113.267026 188.949033,114.383792 185.943923,114.248605 C185.362856,114.230972 184.764182,114.319138 183.813346,114.372037 C183.813346,117.922179 183.748783,121.425299 183.883779,124.922542 C183.895517,125.310471 184.922655,125.986409 185.491982,125.992287 C188.925555,126.033431 192.376737,125.95702 195.816179,125.857099 C198.54543,125.763056 200.811001,124.787354 202.436813,122.436267 C202.800713,121.907272 203.669378,121.689797 204.356092,121.472321 C204.825641,121.331256 205.37736,121.454688 205.893864,121.437055 C214.316389,121.272479 222.738915,121.096147 231.149702,120.937449 C232.08293,120.90806 233.022027,120.931571 234.266331,120.931571 C234.512843,124.422936 234.735879,127.720336 235,131.587875 L185.985008,131.587875 L185.985008,145.970652 L218.125602,145.970652 C214.287043,150.643438 210.689127,155.092871 207.02078,159.471772 C202.695065,164.626531 198.26957,169.70488 193.967332,174.865517 C191.367208,177.957197 187.739946,180.831401 186.730416,184.410932 C185.462635,188.842732 186.313692,193.932836 186.60716,198.705543 C186.636507,199.199272 189.089897,199.851699 190.428111,199.869332 C196.931357,200.004519 203.428734,199.928109 209.961327,199.928109 C209.873287,200.069174 209.66199,200.498248 209.368522,200.839155 C194.178629,217.737596 175.514077,228.211691 153.104876,232.455404 C138.766039,235.188543 124.849796,234.018877 110.745734,231.097651 C98.320307,228.517332 87.5793855,222.727779 77.2962738,215.715661 C76.8795495,215.421775 76.5156495,215.057357 76.128272,214.722327 C78.7049192,211.842244 78.7401354,211.818734 81.5163408,213.969979 C83.7819122,215.756805 86.2939965,216.550297 89.1817197,216.520908 C96.078213,216.462131 102.974706,216.579686 109.86533,216.503275 C119.403034,216.373965 128.940737,216.15649 138.48431,215.980158 C138.812994,215.974281 139.147547,215.891993 139.66992,215.815582 L139.66992,207.798374 L93.4780883,207.798374 L93.4780883,197.236114 L104.647473,197.236114 L104.647473,187.99634 L92.9439769,187.99634 Z" id="Fill-6" fill="#000000"></path>
            <path d="M120.51043,66 C120.563726,66.8531775 120.605179,67.8641344 120.682164,69.1497443 C122.411349,69.2257122 124.105003,69.2958364 126,69.3834916 L126,73.4390066 L107.227683,73.4390066 C106.978964,72.0598977 106.653261,70.4295106 106.315715,68.6997809 L90.4510341,68.6997809 L90.4510341,74 L59,74 C60.2613576,72.0014609 61.4398091,70.1081081 64.6968358,70.2191381 C68.729627,70.3535427 72.7920276,69.8451424 77.0794591,69.6113952 C77.1742089,68.5829072 77.2748807,67.5135135 77.4170055,66 L120.51043,66 Z" id="Fill-8" fill="#000000"></path>
            <path d="M157,121 L167.651651,121 C167.913079,124.982147 168.375136,128.927761 168.399455,132.873375 C168.50889,145.459152 168.399455,158.051018 168.460252,170.648973 C168.484571,174.533697 168.776397,178.436688 168.983107,182.327502 C169.189818,186.206138 167.499658,186.930718 163.90047,187.801432 C162.210311,188.209389 160.374239,187.862321 158.453051,187.862321 C158.361855,187.107296 158.240261,186.516672 158.240261,185.926048 C158.05179,167.470561 157.893717,149.021164 157.662688,130.571767 C157.63229,127.484689 157.243188,124.403701 157,121" id="Fill-10" fill="#231F20"></path>
        </g>
    </g>
</svg>